<svg xmlns="http://www.w3.org/2000/svg">
    <defs>
        <symbol id="add" viewBox="0 0 24 24">
            <path class="fill" d="M18.984 12.984h-6v6h-1.969v-6h-6v-1.969h6v-6h1.969v6h6v1.969z"></path>
        </symbol>        
        <symbol id="agenda" viewBox="0 0 24 24">
            <path d="M0 0h24v24H0z" fill="none"/>
            <path d="M20 13H3c-.55 0-1 .45-1 1v6c0 .55.45 1 1 1h17c.55 0 1-.45 1-1v-6c0-.55-.45-1-1-1zm0-10H3c-.55 0-1 .45-1 1v6c0 .55.45 1 1 1h17c.55 0 1-.45 1-1V4c0-.55-.45-1-1-1z"/>
        </symbol>
        <symbol id="archieve">
            <path d="M5.109 5.016h13.781l-0.938-1.031h-12zM12 17.484l5.484-5.484h-3.469v-2.016h-4.031v2.016h-3.469zM20.531 5.25c0.281 0.328 0.469 0.797 0.469 1.266v12.469c0 1.078-0.938 2.016-2.016 2.016h-13.969c-1.078 0-2.016-0.938-2.016-2.016v-12.469c0-0.469 0.188-0.938 0.469-1.266l1.359-1.688c0.281-0.328 0.703-0.563 1.172-0.563h12c0.469 0 0.891 0.234 1.172 0.563z"></path>
        </symbol>
        <symbol id="bars" viewBox="0 0 24 24">
            <path d="M0 0h24v24H0z" fill="none"/>
            <path d="M3 18h18v-2H3v2zm0-5h18v-2H3v2zm0-7v2h18V6H3z"/>
        </symbol>
        <symbol id="create" viewBox="0 0 24 24">
            <path d="M3 17.25V21h3.75L17.81 9.94l-3.75-3.75L3 17.25zM20.71 7.04c.39-.39.39-1.02 0-1.41l-2.34-2.34c-.39-.39-1.02-.39-1.41 0l-1.83 1.83 3.75 3.75 1.83-1.83z"/>
            <path d="M0 0h24v24H0z" fill="none"/>       
        </symbol>
        <symbol id="delete" viewBox="0 0 24 24">
            <path d="M18.984 3.984v2.016h-13.969v-2.016h3.469l1.031-0.984h4.969l1.031 0.984h3.469zM6 18.984v-12h12v12c0 1.078-0.938 2.016-2.016 2.016h-7.969c-1.078 0-2.016-0.938-2.016-2.016z"></path>
        </symbol>
        <symbol viewBox="0 0 24 24" id="devices">
            <path d="M0 0h24v24H0z" fill="none"/>
            <path d="M4 6h18V4H4c-1.1 0-2 .9-2 2v11H0v3h14v-3H4V6zm19 2h-6c-.55 0-1 .45-1 1v10c0 .55.45 1 1 1h6c.55 0 1-.45 1-1V9c0-.55-.45-1-1-1zm-1 9h-4v-7h4v7z"/>
        </symbol>
        <symbol viewBox="0 0 24 24" id="done">
            <path d="M0 0h24v24H0z" fill="none"/>
            <path d="M9 16.2L4.8 12l-1.4 1.4L9 19 21 7l-1.4-1.4L9 16.2z"/>
        </symbol>
        <symbol viewBox="0 0 24 24" id="feedback">
            <path d="M0 0h24v24H0z" fill="none"/>
            <path d="M20 2H4c-1.1 0-1.99.9-1.99 2L2 22l4-4h14c1.1 0 2-.9 2-2V4c0-1.1-.9-2-2-2zm-7 12h-2v-2h2v2zm0-4h-2V6h2v4z"/>
        </symbol>
        <symbol viewBox="0 0 24 24" id="help">
            <path d="M15.047 11.25c0.563-0.563 0.938-1.359 0.938-2.25 0-2.203-1.781-3.984-3.984-3.984s-3.984 1.781-3.984 3.984h1.969c0-1.078 0.938-2.016 2.016-2.016s2.016 0.938 2.016 2.016c0 0.563-0.234 1.031-0.609 1.406l-1.219 1.266c-0.703 0.75-1.172 1.734-1.172 2.813v0.516h1.969c0-1.5 0.469-2.063 1.172-2.813zM12.984 18.984v-1.969h-1.969v1.969h1.969zM12 2.016c5.531 0 9.984 4.453 9.984 9.984s-4.453 9.984-9.984 9.984-9.984-4.453-9.984-9.984 4.453-9.984 9.984-9.984z"></path>
        </symbol>
        <symbol viewBox="0 0 24 24" id="ideia">
            <path d="M9 21c0 .55.45 1 1 1h4c.55 0 1-.45 1-1v-1H9v1zm3-19C8.13 2 5 5.13 5 9c0 2.38 1.19 4.47 3 5.74V17c0 .55.45 1 1 1h6c.55 0 1-.45 1-1v-2.26c1.81-1.27 3-3.36 3-5.74 0-3.87-3.13-7-7-7z"></path>
        </symbol>
        <symbol viewBox="0 0 24 24" id="image">
            <path d="M0 0h24v24H0z" fill="none"/>
            <path d="M21 19V5c0-1.1-.9-2-2-2H5c-1.1 0-2 .9-2 2v14c0 1.1.9 2 2 2h14c1.1 0 2-.9 2-2zM8.5 13.5l2.5 3.01L14.5 12l4.5 6H5l3.5-4.5z"/>
        </symbol>
        <symbol viewBox="0 0 24 24" id="keyboard">
            <path d="M20 5H4c-1.1 0-1.99.9-1.99 2L2 17c0 1.1.9 2 2 2h16c1.1 0 2-.9 2-2V7c0-1.1-.9-2-2-2zm-9 3h2v2h-2V8zm0 3h2v2h-2v-2zM8 8h2v2H8V8zm0 3h2v2H8v-2zm-1 2H5v-2h2v2zm0-3H5V8h2v2zm9 7H8v-2h8v2zm0-4h-2v-2h2v2zm0-3h-2V8h2v2zm3 3h-2v-2h2v2zm0-3h-2V8h2v2z"/>
            <path d="M0 0h24v24H0zm0 0h24v24H0z" fill="none"/>
        </symbol>
        <symbol viewBox="0 0 24 24" id="label">
            <path d="M0 0h24v24H0z" fill="none"/>
            <path d="M17.63 5.84C17.27 5.33 16.67 5 16 5L5 5.01C3.9 5.01 3 5.9 3 7v10c0 1.1.9 1.99 2 1.99L16 19c.67 0 1.27-.33 1.63-.84L22 12l-4.37-6.16z"/>
        </symbol>
        <symbol viewBox="0 0 24 24" id="lightbulb">
            <path d="M14.859 13.078c1.359-0.938 2.156-2.438 2.156-4.078 0-2.766-2.25-5.016-5.016-5.016s-5.016 2.25-5.016 5.016c0 1.641 0.797 3.141 2.156 4.078l0.844 0.609v2.297h4.031v-2.297zM12 2.016c3.844 0 6.984 3.141 6.984 6.984 0 2.391-1.172 4.453-3 5.719v2.297c0 0.563-0.422 0.984-0.984 0.984h-6c-0.563 0-0.984-0.422-0.984-0.984v-2.297c-1.828-1.266-3-3.328-3-5.719 0-3.844 3.141-6.984 6.984-6.984zM9 21v-0.984h6v0.984c0 0.563-0.422 0.984-0.984 0.984h-4.031c-0.563 0-0.984-0.422-0.984-0.984z"></path>
        </symbol>
        <symbol viewBox="0 0 32 32" id="list">
            <path d="M7 24h-6c-0.553 0-1 0.447-1 1v6c0 0.553 0.447 1 1 1h6c0.553 0 1-0.447 1-1v-6c0-0.553-0.447-1-1-1zM6 29c0 0.553-0.447 1-1 1h-2c-0.553 0-1-0.447-1-1v-2c0-0.553 0.447-1 1-1h2c0.553 0 1 0.447 1 1v2zM31 26h-18c-0.553 0-1 0.447-1 1v2c0 0.553 0.447 1 1 1h18c0.553 0 1-0.447 1-1v-2c0-0.553-0.447-1-1-1zM31 14h-18c-0.553 0-1 0.447-1 1v2c0 0.553 0.447 1 1 1h18c0.553 0 1-0.447 1-1v-2c0-0.553-0.447-1-1-1zM7 0h-6c-0.553 0-1 0.447-1 1v6c0 0.553 0.447 1 1 1h6c0.553 0 1-1.447 1-2v-5c0-0.553-0.447-1-1-1zM6 5c0 0.553-0.447 1-1 1h-2c-0.553 0-1-0.447-1-1v-2c0-0.553 0.447-1 1-1h2c0.553 0 1 0.447 1 1v2zM7 12h-6c-0.553 0-1 0.447-1 1v6c0 0.553 0.447 1 1 1h6c0.553 0 1-0.447 1-1v-6c0-0.553-0.447-1-1-1zM6 17c0 0.553-0.447 1-1 1h-2c-0.553 0-1-0.447-1-1v-2c0-0.553 0.447-1 1-1h2c0.553 0 1 0.447 1 1v2zM31 2h-18c-0.553 0-1 0.447-1 1v2c0 0.553 0.447 1 1 1h18c0.553 0 1-0.447 1-1v-2c0-0.553-0.447-1-1-1z"></path>
        </symbol>
        <symbol viewBox="0 0 24 24" id="more_vert">
            <path d="M12 15.984c1.078 0 2.016 0.938 2.016 2.016s-0.938 2.016-2.016 2.016-2.016-0.938-2.016-2.016 0.938-2.016 2.016-2.016zM12 9.984c1.078 0 2.016 0.938 2.016 2.016s-0.938 2.016-2.016 2.016-2.016-0.938-2.016-2.016 0.938-2.016 2.016-2.016zM12 8.016c-1.078 0-2.016-0.938-2.016-2.016s0.938-2.016 2.016-2.016 2.016 0.938 2.016 2.016-0.938 2.016-2.016 2.016z"></path>
        </symbol>
        <symbol viewBox="0 0 24 24" id="organization">
            <path d="M296 32h192c13.255 0 24 10.745 24 24v160c0 13.255-10.745 24-24 24H296c-13.255 0-24-10.745-24-24V56c0-13.255 10.745-24 24-24zm-80 0H24C10.745 32 0 42.745 0 56v160c0 13.255 10.745 24 24 24h192c13.255 0 24-10.745 24-24V56c0-13.255-10.745-24-24-24zM0 296v160c0 13.255 10.745 24 24 24h192c13.255 0 24-10.745 24-24V296c0-13.255-10.745-24-24-24H24c-13.255 0-24 10.745-24 24zm296 184h192c13.255 0 24-10.745 24-24V296c0-13.255-10.745-24-24-24H296c-13.255 0-24 10.745-24 24v160c0 13.255 10.745 24 24 24z"/>
        </symbol>
        <symbol viewBox="0 0 24 24" id="pallete">
            <path d="M17.484 12c0.844 0 1.5-0.656 1.5-1.5s-0.656-1.5-1.5-1.5-1.5 0.656-1.5 1.5 0.656 1.5 1.5 1.5zM14.484 8.016c0.844 0 1.5-0.656 1.5-1.5s-0.656-1.5-1.5-1.5-1.5 0.656-1.5 1.5 0.656 1.5 1.5 1.5zM9.516 8.016c0.844 0 1.5-0.656 1.5-1.5s-0.656-1.5-1.5-1.5-1.5 0.656-1.5 1.5 0.656 1.5 1.5 1.5zM6.516 12c0.844 0 1.5-0.656 1.5-1.5s-0.656-1.5-1.5-1.5-1.5 0.656-1.5 1.5 0.656 1.5 1.5 1.5zM12 3c4.969 0 9 3.609 9 8.016 0 2.766-2.25 4.969-5.016 4.969h-1.734c-0.844 0-1.5 0.656-1.5 1.5 0 0.375 0.141 0.703 0.375 0.984s0.375 0.656 0.375 1.031c0 0.844-0.656 1.5-1.5 1.5-4.969 0-9-4.031-9-9s4.031-9 9-9z"></path>
        </symbol>
        <symbol viewBox="0 0 48 48" id="pen">
            <path d="m48 0v48h-48v-48h48z" fill="none"/>
            <path d="m6 34.49v7.51h7.48l15.08-15.07-7.5-7.5-15.06 15.06zm30.74-27.9l4.67 4.67c0.78 0.78 0.8 2.07 0.02 2.85l-10.74 10.72-7.52-7.52 5.07-5.07-1.46-1.46-11.32 11.32-2.81-2.8 12.75-12.73c0.78-0.78 2.07-0.76 2.85 0.02l2.83 2.83 2.83-2.83c0.77-0.78 2.05-0.78 2.83 0z"/>
        </symbol>
        <symbol viewBox="0 0 24 24" id="person_add">
            <path d="M15 14.016c2.672 0 8.016 1.313 8.016 3.984v2.016h-16.031v-2.016c0-2.672 5.344-3.984 8.016-3.984zM6 9.984h3v2.016h-3v3h-2.016v-3h-3v-2.016h3v-3h2.016v3zM15 12c-2.203 0-3.984-1.781-3.984-3.984s1.781-4.031 3.984-4.031 3.984 1.828 3.984 4.031-1.781 3.984-3.984 3.984z"></path>
        </symbol>
        <symbol viewBox="0 0 24 24" id="remember">
            <path d="m20.78 13.16l-6.05-3.02c-0.23-0.09-0.47-0.14-0.73-0.14h-1v-2h1.75c1.66 0 3-1.34 3-3s-1.34-3-3-3c-0.75 0-1.14 0.22-1.75 0.75v-0.75c0-1.1-0.9-2-2-2s-2 0.9-2 2v0.75c-0.61-0.53-1-0.75-1.75-0.75-1.66 0-3 1.34-3 3s1.34 3 3 3h1.75v8.31l-4.57-0.95c-0.1-0.02-0.21-0.03-0.32-0.03-0.41 0-0.79 0.17-1.06 0.44l-1.05 1.06 6.59 6.59c0.36 0.36 0.86 0.58 1.41 0.58h9.06c1 0 1.77-0.74 1.92-1.7l1-7.03c0.01-0.09 0.02-0.18 0.02-0.27 0-0.83-0.5-1.54-1.22-1.84zm-11.53-6.16h-2c-1.1 0-2-0.9-2-2s0.9-2 2-2 2 0.9 2 2v2zm3.5-2c0-1.1 0.9-2 2-2s2 0.9 2 2-0.9 2-2 2h-2v-2z"></path>
        </symbol>
        <symbol viewBox="0 0 24 24" id="photo">
            <path d="M8.484 13.5l-3.469 4.5h13.969l-4.5-6-3.469 4.5zM21 18.984c0 1.078-0.938 2.016-2.016 2.016h-13.969c-1.078 0-2.016-0.938-2.016-2.016v-13.969c0-1.078 0.938-2.016 2.016-2.016h13.969c1.078 0 2.016 0.938 2.016 2.016v13.969z"></path>
        </symbol>
        <symbol viewBox="0 0 24 24" id="pin">
            <path d="M16 5h.99L17 3H7v2h1v7l-2 2v2h5v6l1 1 1-1v-6h5v-2l-2-2V5z"></path><path fill="none" d="M0 0h24v24H0z"></path>
        </symbol>
        <symbol viewBox="0 0 24 24" id="repeat">
            <path d="M24 4v7c0 0.547-0.453 1-1 1h-7c-0.406 0-0.766-0.25-0.922-0.625-0.156-0.359-0.078-0.797 0.219-1.078l2.156-2.156c-1.469-1.359-3.406-2.141-5.453-2.141-4.406 0-8 3.594-8 8s3.594 8 8 8c2.484 0 4.781-1.125 6.312-3.109 0.078-0.109 0.219-0.172 0.359-0.187 0.141 0 0.281 0.047 0.391 0.141l2.141 2.156c0.187 0.172 0.187 0.469 0.031 0.672-2.281 2.75-5.656 4.328-9.234 4.328-6.609 0-12-5.391-12-12s5.391-12 12-12c3.078 0 6.062 1.234 8.266 3.313l2.031-2.016c0.281-0.297 0.719-0.375 1.094-0.219 0.359 0.156 0.609 0.516 0.609 0.922z"></path>
        </symbol>
        <symbol viewBox="0 0 24 24" id="search">
            <path d="M15.5 14h-.79l-.28-.27C15.41 12.59 16 11.11 16 9.5 16 5.91 13.09 3 9.5 3S3 5.91 3 9.5 5.91 16 9.5 16c1.61 0 3.09-.59 4.23-1.57l.27.28v.79l5 4.99L20.49 19l-4.99-5zm-6 0C7.01 14 5 11.99 5 9.5S7.01 5 9.5 5 14 7.01 14 9.5 11.99 14 9.5 14z"/>
            <path d="M0 0h24v24H0z" fill="none"/>
        </symbol>
        <symbol viewBox="0 0 24 24" id="settings">
            <path d="M12 15.516c1.922 0 3.516-1.594 3.516-3.516s-1.594-3.516-3.516-3.516-3.516 1.594-3.516 3.516 1.594 3.516 3.516 3.516zM19.453 12.984l2.109 1.641c0.188 0.141 0.234 0.422 0.094 0.656l-2.016 3.469c-0.141 0.234-0.375 0.281-0.609 0.188l-2.484-0.984c-0.516 0.375-1.078 0.75-1.688 0.984l-0.375 2.625c-0.047 0.234-0.234 0.422-0.469 0.422h-4.031c-0.234 0-0.422-0.188-0.469-0.422l-0.375-2.625c-0.609-0.234-1.172-0.563-1.688-0.984l-2.484 0.984c-0.234 0.094-0.469 0.047-0.609-0.188l-2.016-3.469c-0.141-0.234-0.094-0.516 0.094-0.656l2.109-1.641c-0.047-0.328-0.047-0.656-0.047-0.984s0-0.656 0.047-0.984l-2.109-1.641c-0.188-0.141-0.234-0.422-0.094-0.656l2.016-3.469c0.141-0.234 0.375-0.281 0.609-0.188l2.484 0.984c0.516-0.375 1.078-0.75 1.688-0.984l0.375-2.625c0.047-0.234 0.234-0.422 0.469-0.422h4.031c0.234 0 0.422 0.188 0.469 0.422l0.375 2.625c0.609 0.234 1.172 0.563 1.688 0.984l2.484-0.984c0.234-0.094 0.469-0.047 0.609 0.188l2.016 3.469c0.141 0.234 0.094 0.516-0.094 0.656l-2.109 1.641c0.047 0.328 0.047 0.656 0.047 0.984s0 0.656-0.047 0.984z"></path>
        </symbol>
        <symbol width="16" height="16" viewBox="0 0 32 32" id="spinner">
            <path d="M32 12h-12l4.485-4.485c-2.267-2.266-5.28-3.515-8.485-3.515s-6.219 1.248-8.485 3.515c-2.266 2.267-3.515 5.28-3.515 8.485s1.248 6.219 3.515 8.485c2.267 2.266 5.28 3.515 8.485 3.515s6.219-1.248 8.485-3.515c0.189-0.189 0.371-0.384 0.546-0.583l3.010 2.634c-2.933 3.349-7.239 5.464-12.041 5.464-8.837 0-16-7.163-16-16s7.163-16 16-16c4.418 0 8.418 1.791 11.313 4.687l4.687-4.687v12z"></path>
        </symbol>
        <symbol viewBox="0 0 24 24" id="view">
            <path d="M4 18h17v-6H4v6zM4 5v6h17V5H4z"/>
            <path d="M0 0h24v24H0z" fill="none"/>
        </symbol>
        <symbol viewBox="0 0 24 24" id="notification">
            <path d="M12,2C6.5,2,2,6.5,2,12c0,5.5,4.5,10,10,10s10-4.5,10-10C22,6.5,17.5,2,12,2z M12,18c-0.6,0-1-0.5-1-1h2 C13,17.5,12.5,18,12,18z M17,16H7v-0.6l1.2-1.2v-3c0-1.9,1-3.4,2.8-3.8V6.9C11.1,6.4,11.5,6,12,6s0.9,0.4,0.9,0.9v0.4 c1.8,0.4,2.8,2,2.8,3.8v3l1.2,1.2V16z"></path>
        </symbol>
        <symbol viewBox="0 0 24 24" id="apps">
            <path d="M4 8h4V4H4v4zm6 12h4v-4h-4v4zm-6 0h4v-4H4v4zm0-6h4v-4H4v4zm6 0h4v-4h-4v4zm6-10v4h4V4h-4zm-6 4h4V4h-4v4zm6 6h4v-4h-4v4zm0 6h4v-4h-4v4z"></path>
        </symbol>   
    </defs>
</svg>